<?xml version="1.0" encoding="utf-8"?>
<svg role="img" xmlns="http://www.w3.org/2000/svg" 
	 viewBox="0 0 345.8 91.1" aria-labelledby="logoPrimaryName" aria-describedby="logoPrimaryDesc">

	<style type="text/css">
		.dark{fill: rgba(57,64,83,1);}
		.orange{fill: rgba(211,119,40,1);}
		.light {fill: rgba(243,244,244,1);}
		.white {fill: rgba(255,255,255,1);}
	</style>
	
	<title id="logoPrimaryName">UpCity Logo</title>
	<desc id="logoPrimaryDesc">An Illustration of the UpCity Pins and Logotype; click here to go to the homepage</desc>

	<path class="orange" d="M39,9.2c6.3,1.2,11.8,4.7,15.6,9.6c3.6,4.6,5.8,10.5,5.8,16.8c0,4.1-2.3,10.4-6.5,18.1
			c1.3,2.2,2.7,4.6,4.3,7.2c5.3-9.2,9.3-18.5,9.3-25.3c0-7.7-2.4-14.8-6.5-20.5c-3.9-5.4-9.2-9.7-15.5-12C42.1,1.7,38.3,1,34.3,1
			C15.9,1,1,16.5,1,35.6c0,13.9,16.7,38,26.6,51.1c1.6,2.2,4.1,3.4,6.7,3.4c2.6,0,5.1-1.2,6.7-3.4c2.1-2.7,4.4-5.9,6.9-9.4
			c-1.5-2.2-2.9-4.4-4.3-6.6c-2.5,3.6-5.2,7.3-8.1,11.2c-0.5,0.7-1.7,0.7-2.3,0c-15.7-20.7-25-38-25-46.3
			c0-14.8,11.7-26.9,26.1-26.9C35.9,8.7,37.4,8.9,39,9.2z"/>
	<path class="orange" d="M54.2,77.3c2.4,3.5,4.8,6.7,6.9,9.4c1.6,2.2,4.1,3.4,6.7,3.4c2.6,0,5.1-1.2,6.7-3.4
			C84.3,73.6,101,49.4,101,35.6C101,16.5,86.1,1,67.7,1c-4,0-7.8,0.7-11.3,2.1c2.4,1.8,4.7,3.8,6.6,6.1c1.5-0.3,3.1-0.5,4.7-0.5
			c14.4,0,26.1,12,26.1,26.9c0,8.3-9.3,25.6-25,46.3c-0.5,0.7-1.7,0.7-2.3,0c-2.9-3.9-5.6-7.6-8.1-11.2c-4.2-6.2-7.8-11.9-10.5-17
			c-4.2-7.8-6.4-14.1-6.4-18.1c0-6.4,2.2-12.2,5.8-16.8c-1.9-1.6-4.1-2.8-6.5-3.7c-4.1,5.7-6.5,12.8-6.5,20.5c0,6.8,4,16.1,9.3,25.3
			C46.9,66.6,50.6,72.2,54.2,77.3z"/>
	<path class="dark" d="M154.7,28.7v28.2c0,13-6.9,19.8-20.2,19.8c-13.4,0-19.8-6.7-19.8-19.9V28.3c0-1.8,1.4-3.4,3.5-3.4
			c2.2,0,3.7,1.6,3.7,3.4v28.3c0,9.7,4,13.7,12.6,13.7c8.5,0,13-3.8,13-13.5V28.7c0-2.1,1.5-3.8,3.5-3.8
			C153.2,24.9,154.7,26.6,154.7,28.7z"/>
	<path class="dark" d="M195.8,58.4c0,11.9-6.5,18.3-18.1,18.3c-3,0-5.5-0.5-7.5-1.2v10.5c0,1.8-1.3,3.3-3.5,3.3
			c-2.1,0-3.5-1.5-3.5-3.3V44.2c0-1.8,1.3-3,3-3c1.9,0,2.8,1.2,3,3l0.2,2.7c2.1-3.3,5.7-5.7,11.1-5.7
			C190,41.2,195.8,46.7,195.8,58.4z M188.8,58.8c0-8.1-3.6-11.6-9.5-11.6c-5.3,0-9.1,3.7-9.1,8.5h-0.1v13.6c1.9,0.8,4.2,1.6,7.2,1.6
			C184.4,70.8,188.8,67.3,188.8,58.8z"/>
	<path class="dark" d="M245.3,38.4c0,1.9-1.4,2.9-3,2.9c-1.8,0-2.6-0.6-3.1-2.2c-1.1-2.5-3.3-7.9-12-7.9c-9.8,0-16.2,6.2-16.2,19
			c0,13.4,6.9,20,18.1,20c5.7,0,9.3-1.7,11-2.3c0.7-0.2,1.3-0.4,2.1-0.4c1.7,0,2.8,1.3,2.8,2.9c0,1.7-0.7,2.5-2,3.3
			c-3.2,1.8-9.2,3-14.7,3c-15.2,0-24.6-9-24.6-26c0-16.7,9.2-25.8,23.3-25.8C239.7,24.9,245.3,32.4,245.3,38.4z"/>
	<path class="dark" d="M252.8,30.6c0-2.7,1.9-4.7,4.5-4.7c2.7,0,4.5,2,4.5,4.7c0,2.7-1.8,4.7-4.5,4.7
			C254.7,35.3,252.8,33.3,252.8,30.6z M260.6,44.3v29c0,1.8-1.3,3.3-3.5,3.3c-2.1,0-3.5-1.5-3.5-3.3v-29c0-1.8,1.4-3.3,3.5-3.3
			C259.2,41.1,260.6,42.5,260.6,44.3z"/>
	<path class="dark" d="M280.2,47.5v18.6c0,3.5,1.6,4.4,4,4.4c0.6,0,1.2-0.1,2.4-0.2c2-0.3,3,1.2,3,2.7c0,1.4-0.8,2.8-2.5,3.1
			c-1.4,0.2-3,0.4-4.6,0.4c-6.1,0-9.1-2.2-9.1-9.9V47.5h-3.5c-1.5,0-2.8-1.2-2.8-2.9c0-1.8,1.3-2.9,2.8-2.9h3.5V35
			c0-1.8,1.4-3.3,3.5-3.3c2.1,0,3.4,1.5,3.4,3.3v6.7h6.6c1.6,0,2.8,1.1,2.8,2.9c0,1.7-1.2,2.9-2.8,2.9H280.2z"/>
	<path class="dark" d="M326.1,44c0,0.6-0.2,1.3-0.5,1.9l-14.8,35.3c-2.5,5.9-6.2,7.9-11.6,7.9c-1.2,0-1.8-0.1-2.3-0.1
			c-1.8-0.2-2.9-1.3-2.9-3c0-1.6,1-3,2.8-2.9c0.5,0,1,0.1,2.1,0.1c3.4,0,5.4-1.1,6.4-3.8l1.5-3.8L294,46c-0.3-0.6-0.5-1.3-0.5-1.9
			c0-2,1.6-3.1,3.3-3.1c1.3,0,2.7,0.8,3.3,2.3l10,24.1l9.6-24.2c0.6-1.5,1.8-2.1,3.3-2.1C324.4,41,326.1,42,326.1,44z"/>
	<path class="dark" d="M344.8,45.5c0,0.5-0.3,0.8-0.8,0.8c-0.5,0-0.8-0.3-0.8-0.8l-0.1-4.5l-1.8,4c-0.2,0.4-0.5,0.6-0.8,0.6
				s-0.6-0.2-0.8-0.5l-1.9-4.2l-0.1,4.6c0,0.5-0.3,0.8-0.8,0.8s-0.8-0.3-0.8-0.8l0.1-5.1h-2.5v5.1c0,0.5-0.3,0.8-0.8,0.8
				c-0.5,0-0.8-0.3-0.8-0.8v-5.1h-1.8c-0.4,0-0.7-0.3-0.7-0.7c0-0.4,0.3-0.6,0.7-0.6h6.7c0.8,0,1.4,0.4,1.8,1l1.6,3.6l1.7-3.7
				c0.3-0.6,0.8-0.9,1.3-0.9c0.7,0,1.2,0.5,1.2,1.3L344.8,45.5z"/>
</svg>
